# Blender 4.1.1
# www.blender.org
mtllib grass2_.mtl
o Cube.012
v -0.647732 -0.006665 0.834559
v -0.639300 0.050981 0.841552
v -0.638721 -0.007868 0.834058
v -0.630965 0.049868 0.841089
v -0.647193 -0.007615 0.846547
v -0.639373 0.045935 0.851694
v -0.638182 -0.008818 0.846046
v -0.631112 0.044832 0.851235
v -0.633881 0.080727 0.855500
v -0.626862 0.079790 0.855110
v -0.627304 0.073721 0.862523
v -0.634238 0.074647 0.862909
v -0.629066 0.100838 0.878636
v -0.623700 0.100122 0.878338
v -0.624198 0.095238 0.884576
v -0.629188 0.095905 0.884853
v -0.624425 0.104584 0.903868
v -0.632735 -0.006460 0.822735
v -0.605678 0.042398 0.827083
v -0.633000 -0.007058 0.831816
v -0.605923 0.041845 0.835483
v -0.643530 -0.001136 0.822770
v -0.616735 0.045166 0.826980
v -0.643795 -0.001733 0.831851
v -0.616979 0.044618 0.835305
v -0.590750 0.064745 0.829656
v -0.590957 0.064280 0.836730
v -0.595992 0.072445 0.837078
v -0.595788 0.072905 0.830089
v -0.571982 0.086415 0.832468
v -0.572140 0.086059 0.837876
v -0.571178 0.093930 0.838232
v -0.571031 0.094261 0.833202
v -0.551006 0.101038 0.836761
v -0.643581 -0.004818 0.808757
v -0.639190 0.025158 0.809518
v -0.634570 -0.006021 0.808256
v -0.630855 0.024045 0.809055
v -0.642806 -0.004529 0.822017
v -0.638466 0.025927 0.820022
v -0.633795 -0.005733 0.821517
v -0.630205 0.024824 0.819564
v -0.635406 0.051748 0.801633
v -0.628386 0.050811 0.801243
v -0.627093 0.059185 0.805175
v -0.634027 0.060111 0.805560
v -0.634263 0.065123 0.774857
v -0.628897 0.064407 0.774559
v -0.628171 0.072076 0.772645
v -0.633161 0.072742 0.772922
v -0.632799 0.065627 0.750686
v -0.649484 -0.003275 0.833494
v -0.642175 0.052274 0.833148
v -0.654952 -0.002544 0.826252
v -0.647234 0.052950 0.826449
v -0.640040 -0.004871 0.826203
v -0.633328 0.050341 0.826226
v -0.645509 -0.004141 0.818960
v -0.638341 0.051011 0.819586
v -0.641196 0.096628 0.836045
v -0.645456 0.097197 0.830404
v -0.637935 0.099815 0.825043
v -0.633727 0.099253 0.830616
v -0.647125 0.131354 0.842974
v -0.650382 0.131789 0.838661
v -0.646954 0.138756 0.837014
v -0.643925 0.138352 0.841025
v -0.654559 0.155751 0.847640
v -0.659085 -0.004521 0.822954
v -0.658493 0.032357 0.818874
v -0.654447 -0.005425 0.815180
v -0.653731 0.030883 0.812093
v -0.649040 -0.005140 0.828627
v -0.651481 0.036115 0.822292
v -0.644471 -0.006083 0.820805
v -0.646875 0.034723 0.815480
v -0.671845 0.041256 0.807260
v -0.667881 0.039670 0.801546
v -0.669317 0.048907 0.798989
v -0.673048 0.050301 0.804788
v -0.688326 0.038052 0.797172
v -0.685406 0.037096 0.792698
v -0.691608 0.040054 0.788132
v -0.694311 0.040950 0.792302
v -0.704072 0.019635 0.787055
v -0.665267 -0.003007 0.832973
v -0.674770 0.054238 0.841681
v -0.671685 -0.004955 0.839131
v -0.680706 0.052436 0.847377
v -0.673673 -0.002506 0.824371
v -0.681593 0.050505 0.833445
v -0.680090 -0.004454 0.830529
v -0.687476 0.048720 0.839090
v -0.687352 0.084972 0.839272
v -0.692351 0.083455 0.844069
v -0.697108 0.078401 0.837450
v -0.692170 0.079900 0.832711
v -0.705841 0.107357 0.828319
v -0.709663 0.106197 0.831986
v -0.713567 0.102176 0.826365
v -0.710013 0.103254 0.822955
v -0.726005 0.113824 0.813358
v -0.668576 -0.005423 0.851627
v -0.690429 0.041363 0.873344
v -0.674438 -0.004872 0.844683
v -0.695851 0.041874 0.866920
v -0.660415 0.000682 0.845223
v -0.682044 0.044943 0.866501
v -0.666277 0.001234 0.838278
v -0.687418 0.045449 0.860134
v -0.702716 0.062638 0.884535
v -0.707283 0.063068 0.879126
v -0.703555 0.071578 0.876711
v -0.699043 0.071154 0.882055
v -0.718044 0.082976 0.897995
v -0.721535 0.083304 0.893860
v -0.722293 0.091061 0.895364
v -0.719046 0.090755 0.899210
v -0.736180 0.096355 0.910814
v -0.651141 -0.004689 0.854973
v -0.654173 0.024722 0.861622
v -0.657559 -0.006637 0.861131
v -0.660109 0.022920 0.867317
v -0.660539 -0.002824 0.845769
v -0.661686 0.026726 0.854481
v -0.666956 -0.004772 0.851927
v -0.667570 0.024940 0.860126
v -0.651082 0.049762 0.873746
v -0.656081 0.048245 0.878543
v -0.659454 0.056915 0.877707
v -0.654515 0.058414 0.872968
v -0.633775 0.059596 0.896128
v -0.637597 0.058436 0.899795
v -0.636673 0.065731 0.902785
v -0.633119 0.066809 0.899374
v -0.618765 0.056993 0.914957
v -0.663167 0.000351 0.833084
v -0.666998 0.054700 0.846149
v -0.654249 0.000600 0.834901
v -0.658749 0.054931 0.847829
v -0.665396 -0.002859 0.844469
v -0.669037 0.051249 0.856820
v -0.656478 -0.002610 0.846286
v -0.660861 0.051478 0.858486
v -0.668549 0.098863 0.851033
v -0.661602 0.099057 0.852448
v -0.663577 0.100404 0.861745
v -0.670440 0.100212 0.860347
v -0.667871 0.134532 0.846996
v -0.662560 0.134681 0.848077
v -0.663846 0.141105 0.852558
v -0.668785 0.140967 0.851552
v -0.664822 0.159819 0.842146
v -0.619847 -0.007773 0.842378
v -0.619499 0.029231 0.839625
v -0.625410 -0.007156 0.849550
v -0.625089 0.029107 0.845915
v -0.629160 -0.009264 0.835707
v -0.625903 0.032408 0.834739
v -0.634663 -0.008678 0.842941
v -0.631339 0.032367 0.841064
v -0.607294 0.039899 0.851008
v -0.611970 0.039456 0.856377
v -0.610494 0.048981 0.857381
v -0.606047 0.049224 0.851935
v -0.592270 0.038341 0.863479
v -0.595738 0.038272 0.867653
v -0.590015 0.041920 0.872345
v -0.586802 0.041989 0.868451
v -0.578566 0.021850 0.878634
vn -0.0383 0.1259 -0.9913
vn 0.9907 -0.1262 -0.0517
vn 0.0416 -0.1016 0.9940
vn -0.9887 0.1381 0.0583
vn -0.1360 -0.9881 -0.0722
vn 0.0031 -0.3643 0.9313
vn -0.9860 0.1451 0.0826
vn 0.0063 0.4236 -0.9058
vn -0.9865 0.1481 0.0697
vn 0.9924 -0.1162 -0.0402
vn -0.0956 -0.8963 0.4331
vn 0.9925 -0.1191 -0.0273
vn -0.0559 -0.7107 0.7013
vn 0.0629 0.7467 -0.6622
vn 0.1213 0.9784 -0.1676
vn -0.9669 0.2089 0.1468
vn 0.9979 -0.0535 0.0377
vn 0.8750 -0.4840 -0.0063
vn -0.0282 -0.0586 0.9979
vn -0.8658 0.5003 0.0077
vn 0.0300 0.0727 -0.9969
vn -0.4414 -0.8944 -0.0718
vn -0.7988 0.6014 0.0163
vn 0.0509 0.0856 -0.9950
vn 0.8321 -0.5544 -0.0122
vn 0.0379 0.0858 -0.9956
vn -0.0204 -0.0454 0.9988
vn -0.3285 0.9431 0.0525
vn -0.0074 -0.0457 0.9989
vn -0.6551 0.7550 0.0306
vn 0.7571 -0.6530 -0.0209
vn 0.5766 -0.8162 -0.0369
vn 0.1501 0.0741 -0.9859
vn 0.0923 -0.0562 0.9941
vn -0.0511 0.0328 -0.9982
vn 0.9912 -0.1205 -0.0540
vn 0.0629 0.0563 0.9964
vn -0.9880 0.1439 0.0559
vn -0.1307 -0.9910 0.0292
vn 0.1014 0.3764 0.9209
vn -0.9883 0.1494 0.0320
vn -0.0895 -0.2714 -0.9583
vn -0.9873 0.1513 0.0481
vn 0.9917 -0.1130 -0.0618
vn 0.1098 0.9472 -0.3013
vn 0.9903 -0.1149 -0.0779
vn 0.1431 0.9217 0.3605
vn -0.1428 -0.8830 -0.4472
vn -0.1339 -0.9906 -0.0287
vn -0.9900 0.1286 -0.0573
vn 0.9769 -0.1340 -0.1665
vn -0.7882 0.1075 0.6060
vn -0.5983 0.0864 -0.7966
vn 0.7897 -0.0958 -0.6060
vn 0.6030 -0.0740 0.7943
vn -0.1541 -0.9879 0.0167
vn 0.7995 0.0602 -0.5976
vn 0.6014 -0.0558 0.7970
vn -0.7989 -0.0216 0.6011
vn 0.6040 -0.0658 0.7942
vn -0.5971 0.0946 -0.7965
vn 0.6751 0.5840 -0.4508
vn -0.5995 0.1046 -0.7935
vn 0.7656 0.3443 -0.5434
vn -0.7851 -0.2474 0.5679
vn -0.7672 -0.3380 0.5452
vn 0.5248 -0.0029 0.8512
vn -0.6676 0.1564 -0.7279
vn -0.8423 -0.0376 -0.5378
vn 0.4827 -0.0845 -0.8717
vn 0.8495 0.1231 0.5130
vn -0.4827 0.1045 0.8695
vn -0.0974 -0.9934 0.0601
vn 0.4716 0.8738 0.1187
vn -0.5474 0.1738 0.8186
vn -0.4705 -0.8749 -0.1143
vn -0.5515 0.1902 0.8122
vn 0.5188 -0.1617 -0.8395
vn -0.6991 0.4558 -0.5509
vn 0.4799 -0.1986 -0.8546
vn -0.2012 0.9184 -0.3407
vn 0.0218 -0.9665 0.2559
vn 0.5139 -0.7066 0.4864
vn -0.6049 0.0820 0.7921
vn 0.4911 -0.2558 -0.8327
vn 0.6916 0.0049 0.7223
vn -0.7076 -0.2077 0.6754
vn -0.6952 0.0191 -0.7185
vn 0.7021 0.2202 -0.6772
vn 0.1247 -0.9760 -0.1787
vn -0.6313 -0.2455 -0.7356
vn 0.6840 0.2298 -0.6923
vn 0.6089 0.3066 0.7316
vn 0.6931 0.2313 -0.6828
vn -0.7163 -0.1965 0.6695
vn -0.2394 -0.8258 -0.5107
vn -0.7251 -0.1978 0.6597
vn -0.4429 -0.6121 -0.6552
vn 0.4125 0.6520 0.6362
vn 0.0455 0.9378 0.3441
vn 0.6286 0.2994 -0.7178
vn -0.7707 -0.1253 0.6248
vn -0.6605 -0.5472 0.5141
vn -0.6447 0.0675 -0.7615
vn 0.6531 0.5628 -0.5067
vn 0.6430 -0.0536 0.7639
vn 0.3546 -0.8597 -0.3677
vn 0.6000 0.6586 -0.4542
vn 0.6266 -0.0423 0.7782
vn -0.6264 -0.6142 0.4800
vn 0.6366 -0.0411 0.7701
vn -0.6508 0.0801 -0.7550
vn 0.2336 0.9648 -0.1206
vn -0.6606 0.0789 -0.7466
vn 0.4871 0.8012 -0.3475
vn -0.5671 -0.7070 0.4225
vn -0.4259 -0.8566 0.2915
vn 0.5462 -0.0601 0.8355
vn -0.7320 0.0601 -0.6786
vn 0.7033 -0.0870 0.7055
vn -0.7063 -0.2023 0.6783
vn -0.7088 0.1740 -0.6836
vn 0.7033 0.2255 -0.6742
vn 0.0533 -0.9667 -0.2503
vn -0.6792 0.4784 -0.5566
vn 0.7195 0.2280 -0.6560
vn 0.6979 -0.3801 0.6071
vn 0.7081 0.2318 -0.6669
vn -0.7013 -0.1960 0.6854
vn 0.1424 0.8914 0.4303
vn -0.6896 -0.1997 0.6961
vn -0.3237 0.9454 -0.0383
vn 0.3821 -0.9178 0.1079
vn 0.0942 -0.9732 -0.2096
vn 0.7797 0.1966 -0.5944
vn -0.6211 -0.2286 0.7497
vn 0.1872 0.2421 -0.9520
vn 0.9787 0.0332 0.2028
vn -0.1880 -0.2306 0.9547
vn -0.9803 -0.0216 -0.1962
vn 0.0791 -0.9634 -0.2561
vn -0.1970 -0.0760 0.9775
vn -0.9805 -0.0031 -0.1966
vn 0.1952 0.1146 -0.9740
vn -0.9808 -0.0135 -0.1943
vn 0.9780 0.0412 0.2047
vn -0.1888 0.4699 0.8623
vn 0.9780 0.0517 0.2023
vn -0.2007 0.2144 0.9559
vn 0.2013 -0.1139 -0.9729
vn 0.2008 -0.2078 -0.9573
vn -0.9581 0.0619 -0.2796
vn 0.9864 0.1162 0.1164
vn 0.7700 0.0484 0.6362
vn -0.5861 0.0851 0.8057
vn -0.7769 0.0402 -0.6284
vn 0.5866 -0.0651 -0.8072
vn 0.0654 -0.9890 0.1329
vn -0.4200 0.8445 -0.3323
vn 0.6475 0.0114 -0.7620
vn 0.4194 -0.8464 0.3281
vn 0.6514 0.0286 -0.7582
vn -0.6211 0.0039 0.7838
vn 0.6455 0.5381 0.5420
vn -0.5857 -0.0302 0.8100
vn 0.1944 0.9620 0.1916
vn -0.0284 -0.9966 -0.0778
vn -0.4791 -0.7757 -0.4108
vn 0.6978 -0.0749 -0.7124
vn -0.5964 -0.0903 0.7976
vt 0.375000 0.000000
vt 0.625000 0.000000
vt 0.625000 0.250000
vt 0.375000 0.250000
vt 0.625000 0.500000
vt 0.375000 0.500000
vt 0.625000 0.750000
vt 0.375000 0.750000
vt 0.625000 1.000000
vt 0.375000 1.000000
vt 0.125000 0.500000
vt 0.125000 0.750000
s 0
usemtl green.001
f 1/1/1 2/2/1 4/3/1 3/4/1
f 3/4/2 4/3/2 8/5/2 7/6/2
f 7/6/3 8/5/3 6/7/3 5/8/3
f 5/8/4 6/7/4 2/9/4 1/10/4
f 3/11/5 7/6/5 5/8/5 1/12/5
f 6/7/6 8/5/6 11/5/6 12/7/6
f 9/9/7 12/7/7 16/7/7 13/9/7
f 4/3/8 2/2/8 9/2/8 10/3/8
f 2/9/9 6/7/9 12/7/9 9/9/9
f 8/5/10 4/3/10 10/3/10 11/5/10
f 16/7/11 15/5/11 17/7/11
f 11/5/12 10/3/12 14/3/12 15/5/12
f 12/7/13 11/5/13 15/5/13 16/7/13
f 10/3/14 9/2/14 13/2/14 14/3/14
f 14/3/15 13/2/15 17/3/15
f 13/9/16 16/7/16 17/9/16
f 15/5/17 14/3/17 17/5/17
f 18/1/18 19/2/18 21/3/18 20/4/18
f 20/4/19 21/3/19 25/5/19 24/6/19
f 24/6/20 25/5/20 23/7/20 22/8/20
f 22/8/21 23/7/21 19/9/21 18/10/21
f 20/11/22 24/6/22 22/8/22 18/12/22
f 23/7/23 25/5/23 28/5/23 29/7/23
f 26/9/24 29/7/24 33/7/24 30/9/24
f 21/3/25 19/2/25 26/2/25 27/3/25
f 19/9/26 23/7/26 29/7/26 26/9/26
f 25/5/27 21/3/27 27/3/27 28/5/27
f 33/7/28 32/5/28 34/7/28
f 28/5/29 27/3/29 31/3/29 32/5/29
f 29/7/30 28/5/30 32/5/30 33/7/30
f 27/3/31 26/2/31 30/2/31 31/3/31
f 31/3/32 30/2/32 34/3/32
f 30/9/33 33/7/33 34/9/33
f 32/5/34 31/3/34 34/5/34
f 35/1/35 36/2/35 38/3/35 37/4/35
f 37/4/36 38/3/36 42/5/36 41/6/36
f 41/6/37 42/5/37 40/7/37 39/8/37
f 39/8/38 40/7/38 36/9/38 35/10/38
f 37/11/39 41/6/39 39/8/39 35/12/39
f 40/7/40 42/5/40 45/5/40 46/7/40
f 43/9/41 46/7/41 50/7/41 47/9/41
f 38/3/42 36/2/42 43/2/42 44/3/42
f 36/9/43 40/7/43 46/7/43 43/9/43
f 42/5/44 38/3/44 44/3/44 45/5/44
f 50/7/45 49/5/45 51/7/45
f 45/5/46 44/3/46 48/3/46 49/5/46
f 46/7/47 45/5/47 49/5/47 50/7/47
f 44/3/48 43/2/48 47/2/48 48/3/48
f 48/3/49 47/2/49 51/3/49
f 47/9/50 50/7/50 51/9/50
f 49/5/51 48/3/51 51/5/51
f 52/1/52 53/2/52 55/3/52 54/4/52
f 54/4/53 55/3/53 59/5/53 58/6/53
f 58/6/54 59/5/54 57/7/54 56/8/54
f 56/8/55 57/7/55 53/9/55 52/10/55
f 54/11/56 58/6/56 56/8/56 52/12/56
f 57/7/57 59/5/57 62/5/57 63/7/57
f 60/9/58 63/7/58 67/7/58 64/9/58
f 55/3/59 53/2/59 60/2/59 61/3/59
f 53/9/60 57/7/60 63/7/60 60/9/60
f 59/5/61 55/3/61 61/3/61 62/5/61
f 67/7/62 66/5/62 68/7/62
f 62/5/63 61/3/63 65/3/63 66/5/63
f 63/7/64 62/5/64 66/5/64 67/7/64
f 61/3/65 60/2/65 64/2/65 65/3/65
f 65/3/66 64/2/66 68/3/66
f 64/9/67 67/7/67 68/9/67
f 66/5/68 65/3/68 68/5/68
f 69/1/69 70/2/69 72/3/69 71/4/69
f 71/4/70 72/3/70 76/5/70 75/6/70
f 75/6/71 76/5/71 74/7/71 73/8/71
f 73/8/72 74/7/72 70/9/72 69/10/72
f 71/11/73 75/6/73 73/8/73 69/12/73
f 74/7/74 76/5/74 79/5/74 80/7/74
f 77/9/75 80/7/75 84/7/75 81/9/75
f 72/3/76 70/2/76 77/2/76 78/3/76
f 70/9/77 74/7/77 80/7/77 77/9/77
f 76/5/78 72/3/78 78/3/78 79/5/78
f 84/7/79 83/5/79 85/7/79
f 79/5/80 78/3/80 82/3/80 83/5/80
f 80/7/81 79/5/81 83/5/81 84/7/81
f 78/3/82 77/2/82 81/2/82 82/3/82
f 82/3/83 81/2/83 85/3/83
f 81/9/84 84/7/84 85/9/84
f 83/5/85 82/3/85 85/5/85
f 86/1/86 87/2/86 89/3/86 88/4/86
f 88/4/87 89/3/87 93/5/87 92/6/87
f 92/6/88 93/5/88 91/7/88 90/8/88
f 90/8/89 91/7/89 87/9/89 86/10/89
f 88/11/90 92/6/90 90/8/90 86/12/90
f 91/7/91 93/5/91 96/5/91 97/7/91
f 94/9/92 97/7/92 101/7/92 98/9/92
f 89/3/93 87/2/93 94/2/93 95/3/93
f 87/9/94 91/7/94 97/7/94 94/9/94
f 93/5/95 89/3/95 95/3/95 96/5/95
f 101/7/96 100/5/96 102/7/96
f 96/5/97 95/3/97 99/3/97 100/5/97
f 97/7/98 96/5/98 100/5/98 101/7/98
f 95/3/99 94/2/99 98/2/99 99/3/99
f 99/3/100 98/2/100 102/3/100
f 98/9/101 101/7/101 102/9/101
f 100/5/102 99/3/102 102/5/102
f 103/1/103 104/2/103 106/3/103 105/4/103
f 105/4/104 106/3/104 110/5/104 109/6/104
f 109/6/105 110/5/105 108/7/105 107/8/105
f 107/8/106 108/7/106 104/9/106 103/10/106
f 105/11/107 109/6/107 107/8/107 103/12/107
f 108/7/108 110/5/108 113/5/108 114/7/108
f 111/9/109 114/7/109 118/7/109 115/9/109
f 106/3/110 104/2/110 111/2/110 112/3/110
f 104/9/111 108/7/111 114/7/111 111/9/111
f 110/5/112 106/3/112 112/3/112 113/5/112
f 118/7/113 117/5/113 119/7/113
f 113/5/114 112/3/114 116/3/114 117/5/114
f 114/7/115 113/5/115 117/5/115 118/7/115
f 112/3/116 111/2/116 115/2/116 116/3/116
f 116/3/117 115/2/117 119/3/117
f 115/9/118 118/7/118 119/9/118
f 117/5/119 116/3/119 119/5/119
f 120/1/120 121/2/120 123/3/120 122/4/120
f 122/4/121 123/3/121 127/5/121 126/6/121
f 126/6/122 127/5/122 125/7/122 124/8/122
f 124/8/123 125/7/123 121/9/123 120/10/123
f 122/11/124 126/6/124 124/8/124 120/12/124
f 125/7/125 127/5/125 130/5/125 131/7/125
f 128/9/126 131/7/126 135/7/126 132/9/126
f 123/3/127 121/2/127 128/2/127 129/3/127
f 121/9/128 125/7/128 131/7/128 128/9/128
f 127/5/129 123/3/129 129/3/129 130/5/129
f 135/7/130 134/5/130 136/7/130
f 130/5/131 129/3/131 133/3/131 134/5/131
f 131/7/132 130/5/132 134/5/132 135/7/132
f 129/3/133 128/2/133 132/2/133 133/3/133
f 133/3/134 132/2/134 136/3/134
f 132/9/135 135/7/135 136/9/135
f 134/5/136 133/3/136 136/5/136
f 137/1/137 138/2/137 140/3/137 139/4/137
f 139/4/138 140/3/138 144/5/138 143/6/138
f 143/6/139 144/5/139 142/7/139 141/8/139
f 141/8/140 142/7/140 138/9/140 137/10/140
f 139/11/141 143/6/141 141/8/141 137/12/141
f 142/7/142 144/5/142 147/5/142 148/7/142
f 145/9/143 148/7/143 152/7/143 149/9/143
f 140/3/144 138/2/144 145/2/144 146/3/144
f 138/9/145 142/7/145 148/7/145 145/9/145
f 144/5/146 140/3/146 146/3/146 147/5/146
f 152/7/147 151/5/147 153/7/147
f 147/5/148 146/3/148 150/3/148 151/5/148
f 148/7/149 147/5/149 151/5/149 152/7/149
f 146/3/150 145/2/150 149/2/150 150/3/150
f 150/3/151 149/2/151 153/3/151
f 149/9/152 152/7/152 153/9/152
f 151/5/153 150/3/153 153/5/153
f 154/1/154 155/2/154 157/3/154 156/4/154
f 156/4/155 157/3/155 161/5/155 160/6/155
f 160/6/156 161/5/156 159/7/156 158/8/156
f 158/8/157 159/7/157 155/9/157 154/10/157
f 156/11/158 160/6/158 158/8/158 154/12/158
f 159/7/159 161/5/159 164/5/159 165/7/159
f 162/9/160 165/7/160 169/7/160 166/9/160
f 157/3/161 155/2/161 162/2/161 163/3/161
f 155/9/162 159/7/162 165/7/162 162/9/162
f 161/5/163 157/3/163 163/3/163 164/5/163
f 169/7/164 168/5/164 170/7/164
f 164/5/165 163/3/165 167/3/165 168/5/165
f 165/7/166 164/5/166 168/5/166 169/7/166
f 163/3/167 162/2/167 166/2/167 167/3/167
f 167/3/168 166/2/168 170/3/168
f 166/9/169 169/7/169 170/9/169
f 168/5/170 167/3/170 170/5/170
